<?xml version="1.0" standalone="no"?>
<!DOCTYPE svg PUBLIC "-//W3C//DTD SVG 20010904//EN"
 "http://www.w3.org/TR/2001/REC-SVG-20010904/DTD/svg10.dtd">
<svg version="1.0" xmlns="http://www.w3.org/2000/svg"
 width="678.000000pt" height="735.000000pt" viewBox="0 0 678.000000 735.000000"
 preserveAspectRatio="xMidYMid meet">
<metadata>
Created by potrace 1.10, written by Peter Selinger 2001-2011
</metadata>
<g transform="translate(0.000000,735.000000) scale(0.100000,-0.100000)"
fill="#000000" stroke="none">
<path d="M3420 6585 c-36 -10 -170 -138 -170 -162 0 -6 -9 -15 -20 -18 -15 -5
-20 -15 -20 -40 0 -36 -22 -69 -60 -89 -91 -50 -173 -84 -213 -90 -31 -5 -50
-14 -57 -26 -6 -11 -29 -24 -52 -31 -23 -6 -53 -20 -67 -30 -13 -11 -42 -22
-63 -26 -22 -3 -42 -12 -45 -20 -3 -7 -13 -11 -22 -9 -21 7 -43 -7 -39 -24 2
-9 -10 -16 -33 -20 -20 -3 -50 -16 -66 -28 -17 -12 -39 -22 -48 -22 -9 0 -19
-9 -22 -20 -3 -13 -14 -20 -28 -20 -12 0 -28 -7 -35 -15 -8 -9 -21 -13 -35 -9
-20 5 -23 3 -18 -15 4 -16 -1 -21 -23 -27 -16 -4 -41 -18 -56 -31 -18 -18 -32
-23 -47 -18 -16 5 -21 2 -21 -12 0 -12 -29 -37 -86 -72 -47 -30 -88 -61 -91
-68 -3 -7 -13 -13 -22 -13 -9 0 -24 -14 -33 -30 -10 -18 -25 -30 -38 -30 -15
0 -20 -6 -20 -24 0 -21 -5 -24 -27 -23 -19 1 -30 -5 -39 -22 -7 -13 -16 -26
-21 -30 -5 -3 -14 -18 -20 -33 -7 -16 -20 -28 -28 -28 -9 0 -14 4 -10 9 3 5 0
13 -6 17 -9 5 -10 -1 -5 -20 6 -23 3 -29 -14 -33 -14 -4 -19 -11 -15 -23 3 -9
-6 -37 -19 -63 -32 -60 -56 -141 -56 -190 0 -87 58 -251 93 -260 9 -3 17 -15
17 -26 0 -12 4 -21 9 -21 5 0 11 -9 14 -20 3 -11 13 -23 24 -27 10 -3 43 -30
73 -60 30 -29 62 -53 71 -53 9 0 19 -7 22 -15 3 -8 26 -23 52 -35 36 -16 45
-26 45 -45 0 -16 6 -25 15 -25 8 0 15 5 15 10 0 18 16 10 60 -30 29 -26 50
-38 61 -35 10 3 21 0 26 -8 13 -22 143 -87 175 -87 16 0 31 -6 34 -15 4 -8 18
-15 33 -15 15 0 43 -13 63 -30 30 -25 41 -29 61 -21 28 11 38 6 30 -15 -3 -8
5 -17 20 -23 31 -12 40 -62 20 -111 -8 -19 -21 -64 -28 -100 -8 -36 -25 -105
-39 -155 -14 -49 -26 -100 -26 -111 0 -12 -6 -27 -14 -33 -9 -8 -12 -24 -9
-50 4 -26 -1 -53 -16 -86 -13 -29 -21 -69 -21 -104 -1 -33 -7 -64 -15 -75 -8
-11 -15 -39 -15 -63 0 -24 -4 -43 -9 -43 -4 0 -13 -30 -19 -67 -6 -38 -16 -99
-23 -138 -6 -38 -18 -78 -27 -88 -8 -9 -18 -36 -22 -60 -19 -108 -43 -203 -56
-218 -8 -8 -14 -27 -14 -41 0 -25 -37 -68 -58 -68 -7 0 -17 11 -22 24 -6 16
-20 27 -41 31 l-32 7 23 18 23 17 -24 6 c-12 3 -29 1 -36 -5 -8 -6 -17 -7 -21
-3 -4 4 -1 10 6 12 22 8 13 32 -18 48 -16 9 -30 22 -30 30 0 8 -14 29 -31 46
-21 22 -29 38 -25 52 5 21 -7 52 -30 75 -34 33 -71 306 -77 574 -2 51 -7 73
-24 97 -13 16 -20 37 -17 45 4 11 -6 18 -34 27 -40 12 -46 11 -88 -14 -31 -18
-73 -71 -84 -104 -65 -202 -65 -202 -64 -358 0 -143 22 -311 44 -340 5 -5 18
-39 30 -75 12 -36 28 -75 36 -88 8 -12 13 -30 12 -40 -2 -12 3 -16 17 -14 17
2 21 -3 20 -25 0 -15 5 -28 10 -28 20 0 58 -44 52 -59 -4 -10 -1 -16 7 -16 8
0 16 -6 19 -13 12 -30 111 -138 133 -143 15 -4 24 -13 24 -25 0 -10 10 -24 23
-31 12 -7 43 -28 70 -47 42 -31 47 -39 47 -73 0 -40 -36 -163 -55 -188 -6 -8
-17 -40 -25 -70 -7 -30 -19 -64 -26 -75 -8 -11 -14 -32 -14 -47 0 -15 -9 -43
-19 -62 -11 -19 -17 -43 -14 -55 3 -13 -1 -29 -11 -40 -10 -11 -24 -55 -31
-100 -16 -89 -12 -112 31 -168 13 -18 21 -38 18 -47 -5 -12 0 -16 19 -16 14 0
29 -5 32 -10 4 -6 14 -10 23 -8 10 1 23 -1 30 -5 21 -14 122 13 144 38 11 13
40 31 64 40 24 9 44 23 44 31 0 7 10 16 23 19 30 8 82 106 73 139 -3 12 -25
43 -49 67 -38 39 -42 49 -42 89 2 44 15 90 35 120 14 20 15 25 40 106 24 83
62 121 108 109 83 -20 198 -27 469 -29 186 0 306 -5 312 -11 11 -12 64 -237
65 -277 1 -16 4 -28 9 -28 4 0 7 -18 7 -40 0 -24 11 -62 26 -92 14 -28 30 -78
34 -111 5 -32 16 -67 24 -76 9 -10 16 -22 16 -27 0 -26 82 -203 104 -226 14
-15 26 -36 26 -47 0 -12 6 -21 13 -21 7 0 21 -13 30 -30 16 -27 113 -89 162
-104 16 -4 34 7 74 45 29 28 50 56 48 63 -3 8 -1 18 5 24 7 7 6 17 -2 32 -15
28 -40 125 -40 155 0 14 -6 25 -13 25 -6 0 -21 28 -32 61 -10 34 -27 72 -37
84 -10 13 -15 30 -12 39 6 15 -1 45 -46 196 -10 36 -21 79 -23 95 -3 17 -9 44
-15 60 -6 17 -20 68 -30 115 -21 91 -16 124 20 136 23 7 14 24 -13 24 -27 0
-24 15 7 35 16 10 35 14 50 11 16 -4 30 0 42 12 10 10 54 31 97 46 44 16 87
35 96 42 8 8 31 17 50 20 19 4 41 13 49 20 8 7 27 15 42 19 15 4 29 13 32 21
3 8 17 14 31 14 14 0 34 9 45 20 11 11 26 20 34 20 19 0 181 96 232 137 23 18
46 33 51 33 6 0 13 7 17 15 3 8 13 15 21 15 9 0 31 16 49 35 19 19 42 35 53
35 16 0 19 5 16 24 -4 18 0 25 19 29 13 4 33 21 44 40 52 91 87 135 100 130 8
-3 15 -1 15 3 1 5 3 22 5 37 1 16 12 44 23 63 12 20 21 53 21 75 0 43 6 48 27
22 13 -16 14 -15 8 12 -8 35 -8 59 1 134 5 44 2 61 -16 92 -11 22 -19 43 -16
48 8 12 -23 84 -40 94 -19 11 -18 27 1 27 27 0 16 18 -15 25 -35 8 -46 21 -31
39 12 14 5 26 -15 26 -7 0 -38 27 -69 60 -32 32 -75 69 -98 80 -22 12 -59 36
-81 54 -23 18 -64 43 -93 56 -28 13 -54 32 -56 42 -3 11 -15 18 -31 18 -14 0
-26 5 -26 10 0 6 -11 10 -24 10 -13 0 -29 7 -36 15 -7 8 -18 15 -25 15 -7 0
-36 16 -65 35 -29 19 -65 35 -80 35 -15 0 -33 7 -40 15 -7 8 -19 15 -27 15 -8
0 -29 11 -47 25 -18 14 -40 25 -48 25 -9 0 -19 7 -22 16 -4 11 -13 14 -31 10
-17 -4 -41 3 -80 24 -30 16 -62 30 -69 30 -8 0 -27 6 -43 14 -15 8 -45 21 -65
30 -48 20 -69 53 -70 113 -3 119 13 1021 19 1043 3 14 6 172 7 352 l2 328 29
30 c16 16 39 30 51 30 12 0 27 6 33 14 7 8 31 16 54 19 84 11 173 28 207 39
21 7 84 11 154 10 76 -1 124 2 132 9 11 9 21 8 43 -1 16 -6 50 -10 75 -9 25 2
48 0 52 -4 4 -4 15 -7 24 -7 10 0 23 -7 30 -15 7 -9 21 -13 34 -9 18 4 31 -4
59 -38 20 -24 48 -55 62 -69 14 -15 25 -32 25 -38 0 -6 6 -11 14 -11 8 0 17
-7 20 -16 5 -12 15 -14 53 -8 27 4 50 11 52 17 2 6 13 20 25 32 34 34 48 85
35 125 -19 57 -53 122 -68 128 -8 3 -38 29 -66 59 -32 32 -61 53 -74 53 -12 0
-39 9 -59 19 -21 11 -56 22 -77 26 -22 4 -47 9 -55 12 -8 3 -25 5 -38 4 -13
-2 -35 5 -49 14 -22 15 -34 15 -87 6 -33 -6 -97 -11 -141 -10 -119 2 -267 -16
-380 -45 -142 -37 -151 -36 -210 24 -27 28 -55 50 -62 50 -7 0 -17 9 -23 21
-8 13 -17 18 -28 14 -10 -3 -22 1 -32 12 -13 16 -20 17 -50 8z m86 -103 c28
-22 44 -72 44 -134 0 -55 18 -71 53 -48 12 7 46 19 77 27 146 37 181 45 255
59 223 42 457 45 632 6 101 -22 232 -112 270 -185 18 -37 21 -111 3 -132 -16
-19 -54 -19 -70 0 -7 8 -13 35 -14 60 -2 56 -43 102 -126 139 -93 42 -158 50
-370 49 -170 -1 -210 -5 -315 -28 -66 -14 -145 -30 -175 -36 -30 -5 -59 -14
-65 -18 -5 -5 -29 -11 -51 -14 -23 -2 -54 -11 -70 -18 l-28 -14 3 -275 c1
-151 -3 -432 -9 -625 -6 -192 -15 -512 -19 -710 -8 -349 -7 -361 12 -377 10
-10 32 -18 48 -18 15 0 30 -4 33 -9 3 -5 18 -12 33 -15 16 -4 62 -20 103 -37
41 -17 93 -38 115 -46 174 -67 568 -262 641 -318 18 -14 36 -25 39 -25 15 0
155 -113 196 -158 63 -70 77 -90 107 -152 23 -49 26 -67 26 -170 1 -119 -2
-131 -56 -235 -81 -155 -250 -318 -458 -442 -102 -61 -254 -140 -330 -171 -30
-13 -68 -29 -85 -37 -71 -32 -103 -45 -160 -60 -33 -10 -75 -23 -93 -31 -18
-8 -50 -14 -71 -14 -24 0 -44 -7 -55 -19 -16 -17 -16 -23 -3 -67 8 -27 20 -83
26 -124 19 -125 33 -194 66 -315 8 -27 21 -81 31 -120 30 -128 127 -398 185
-517 19 -38 5 -58 -41 -58 -15 0 -34 19 -115 113 -21 24 -74 113 -104 175 -28
59 -70 180 -107 312 -8 30 -20 69 -26 85 -5 17 -14 53 -18 80 -4 28 -12 68
-18 90 -6 22 -18 99 -27 170 -9 72 -20 134 -25 139 -5 5 -29 4 -57 -2 -116
-25 -177 -32 -318 -36 -219 -7 -402 14 -521 60 -100 38 -107 37 -115 -11 -7
-39 -20 -80 -46 -142 -7 -17 -13 -36 -13 -42 0 -10 -24 -69 -43 -106 -6 -11
-14 -33 -18 -50 -14 -56 -70 -199 -94 -243 -31 -55 -31 -62 -2 -62 21 1 46 14
128 67 42 28 55 29 69 2 26 -47 -3 -77 -143 -149 -69 -35 -87 -46 -100 -59 -6
-6 -23 -11 -38 -11 -29 0 -72 41 -84 81 -7 20 15 109 36 151 5 10 32 86 59
170 28 84 57 167 65 185 8 17 15 36 15 41 0 13 57 166 77 207 20 41 14 66 -22
85 -157 81 -317 234 -422 405 -87 143 -147 370 -140 530 5 112 38 273 73 352
8 17 14 37 14 45 0 8 11 21 25 28 44 24 49 6 36 -122 -15 -131 -15 -137 -3
-323 5 -77 17 -169 26 -205 21 -80 77 -220 88 -220 4 0 8 -4 8 -10 0 -9 29
-53 84 -126 43 -56 134 -145 187 -181 25 -17 51 -38 58 -47 8 -9 24 -16 36
-16 20 0 25 9 40 78 10 42 23 86 28 97 6 11 14 33 18 50 43 170 61 238 73 280
24 81 43 156 56 220 7 33 20 96 31 140 10 44 25 116 34 160 9 44 23 100 31
125 8 25 14 54 14 65 0 26 27 147 46 205 8 25 14 57 14 72 0 15 4 29 9 32 5 4
12 25 16 49 7 44 8 47 51 190 28 93 25 117 -18 117 -41 0 -204 58 -300 107
-14 7 -31 13 -37 13 -12 0 -135 59 -201 97 -60 34 -258 168 -270 182 -3 3 -24
19 -48 35 -104 71 -192 223 -192 333 0 132 92 261 314 438 21 17 43 35 50 40
47 41 206 149 272 185 44 24 62 34 119 70 22 14 58 34 80 44 22 10 47 23 55
28 23 13 219 108 265 128 22 9 58 25 80 35 53 24 131 54 175 67 19 6 40 13 45
16 6 4 30 14 55 22 37 12 46 20 48 42 2 14 10 32 18 38 8 7 14 19 14 28 0 31
64 148 99 179 41 37 83 43 117 15z"/>
<path d="M3365 6073 c-9 -43 -28 -123 -42 -178 -14 -55 -27 -111 -30 -125 -2
-14 -10 -47 -18 -75 -8 -27 -21 -86 -30 -130 -9 -44 -23 -101 -31 -127 -8 -26
-14 -56 -14 -68 0 -12 -5 -30 -10 -41 -6 -10 -15 -38 -20 -61 -5 -24 -16 -70
-25 -103 -14 -53 -38 -151 -65 -270 -5 -22 -14 -58 -20 -80 -26 -92 -92 -352
-97 -382 -4 -26 -2 -33 10 -33 19 0 198 -56 244 -76 17 -8 36 -14 41 -14 6 0
32 -11 58 -24 27 -14 52 -22 56 -20 4 3 8 139 8 302 0 163 5 443 11 622 17
533 25 914 21 938 -9 46 -30 21 -47 -55z m-69 -859 c-3 -8 -10 -14 -16 -14
-14 0 -13 33 3 49 10 10 13 9 15 -4 2 -9 1 -23 -2 -31z m-16 -49 c0 -8 -7 -15
-15 -15 -8 0 -15 7 -15 15 0 8 7 15 15 15 8 0 15 -7 15 -15z m-9 -81 c10 -20
13 -82 14 -277 0 -355 -7 -403 -50 -367 -9 8 -28 10 -50 6 -29 -6 -39 -2 -66
21 -28 26 -30 32 -25 73 3 24 10 58 16 75 5 16 24 91 41 165 18 74 39 142 46
151 8 10 11 27 8 41 -4 14 0 42 9 63 9 21 16 46 16 56 0 28 24 23 41 -7z"/>
<path d="M3150 6053 c-25 -14 -103 -55 -175 -90 -71 -35 -137 -68 -145 -73 -8
-5 -35 -19 -60 -32 -25 -12 -63 -34 -85 -48 -22 -14 -49 -30 -60 -37 -214
-126 -349 -222 -510 -362 -138 -120 -179 -164 -210 -223 -42 -80 -28 -152 44
-232 28 -30 211 -169 301 -228 67 -43 162 -94 250 -132 36 -16 88 -40 117 -52
28 -13 55 -24 58 -24 3 0 33 -13 67 -30 80 -40 98 -39 98 3 0 35 18 119 57
262 13 50 27 106 29 125 3 19 9 44 14 55 5 11 16 56 25 100 9 44 30 132 47
195 16 63 33 135 38 160 9 46 25 111 40 165 5 17 12 50 15 75 6 49 30 147 47
195 5 17 14 48 18 70 4 22 18 66 30 98 20 54 21 88 3 87 -4 -1 -28 -13 -53
-27z m-117 -230 c3 -16 -1 -57 -10 -93 -8 -36 -12 -78 -9 -93 3 -16 0 -43 -8
-61 -30 -69 -35 -85 -41 -132 -8 -58 -23 -103 -43 -126 -8 -10 -12 -27 -9 -39
6 -22 -18 -135 -33 -154 -4 -5 -10 -32 -14 -60 -13 -108 -18 -131 -31 -160 -8
-16 -17 -51 -20 -77 -3 -26 -17 -68 -30 -94 -15 -29 -22 -57 -19 -70 4 -16 0
-24 -15 -29 -11 -3 -26 -3 -32 1 -7 4 -18 -1 -25 -11 -13 -17 -15 -17 -32 -1
-11 9 -42 25 -70 35 -29 9 -60 25 -69 33 -10 9 -35 21 -55 29 -21 7 -49 23
-64 36 -15 13 -36 23 -46 23 -10 0 -21 7 -24 15 -4 10 -16 14 -33 13 -19 -2
-29 3 -36 20 -5 12 -17 22 -25 22 -9 0 -23 9 -33 20 -9 11 -23 20 -31 20 -7 0
-16 9 -19 20 -3 12 -14 20 -26 20 -12 0 -21 6 -21 13 0 16 -42 55 -71 65 -19
7 -24 17 -25 48 -1 21 -5 51 -9 66 -8 30 24 83 56 91 11 3 16 12 14 23 -3 14
13 33 61 69 70 53 82 63 186 149 36 31 71 56 76 56 5 0 15 6 21 14 7 8 26 18
42 21 17 4 33 13 36 21 6 18 94 80 107 76 4 -1 21 11 37 27 20 21 36 29 56 28
22 -2 28 2 28 18 0 12 8 21 20 23 11 2 24 8 30 13 5 5 22 9 37 9 21 0 28 5 28
20 0 13 9 22 28 26 15 4 32 11 39 16 16 13 62 26 94 27 21 1 28 -5 32 -26z"/>
<path d="M2919 4278 c0 -2 -7 -32 -13 -68 -16 -80 -33 -150 -52 -211 -8 -26
-14 -57 -14 -68 0 -12 -5 -31 -11 -42 -5 -11 -14 -43 -20 -72 -23 -127 -54
-270 -75 -343 -8 -28 -14 -61 -14 -73 0 -13 -6 -46 -14 -74 -7 -29 -21 -88
-31 -132 -9 -44 -23 -100 -31 -125 -8 -25 -14 -55 -14 -66 0 -12 -7 -35 -15
-50 -8 -16 -15 -40 -15 -54 -1 -14 -7 -36 -15 -50 -8 -14 -14 -36 -15 -49 0
-28 -26 -120 -46 -169 -8 -18 -14 -43 -14 -55 0 -12 -7 -31 -15 -41 -8 -11
-15 -28 -15 -38 0 -10 -9 -35 -20 -55 -24 -45 -16 -56 48 -72 26 -7 61 -16 78
-22 31 -9 86 -18 256 -41 72 -9 117 -8 260 6 95 9 193 16 218 16 72 0 75 5 62
102 -7 45 -12 108 -12 138 0 30 -5 73 -10 95 -11 44 -14 977 -5 1195 4 74 11
161 16 193 13 75 -2 103 -58 110 -21 2 -51 9 -68 15 -16 6 -57 19 -90 28 -95
28 -179 57 -189 66 -9 7 -45 12 -47 6z m137 -149 c4 -7 21 -9 41 -6 25 4 39 1
52 -12 10 -10 29 -21 43 -24 14 -4 36 -15 48 -25 25 -21 25 -18 22 -197 -1
-60 -2 -173 -3 -250 0 -77 -4 -158 -9 -179 -5 -22 -7 -51 -4 -65 2 -14 7 -183
9 -376 3 -192 6 -392 8 -443 l4 -94 -37 -23 c-20 -13 -47 -23 -61 -23 -311 -5
-410 -4 -423 7 -8 6 -30 11 -49 9 -23 -1 -43 4 -55 15 -10 9 -23 17 -29 17
-18 0 -24 72 -8 104 8 16 15 39 15 51 0 12 7 35 15 52 8 16 21 66 29 110 8 44
20 93 29 109 16 33 47 150 47 181 0 11 7 34 15 49 8 16 15 39 15 52 0 12 6 52
12 87 10 51 16 64 28 60 13 -4 15 8 16 73 0 74 6 106 39 227 7 28 18 73 24
100 6 28 17 82 26 120 9 39 20 88 25 110 25 114 34 138 52 143 11 2 24 15 29
28 9 26 24 31 35 13z"/>
<path d="M3506 4092 c-3 -5 0 -27 6 -51 8 -31 8 -94 -1 -229 -17 -278 -15
-1004 3 -1095 8 -40 17 -128 19 -197 6 -151 11 -158 90 -128 29 11 66 23 82
27 101 26 212 71 425 174 350 168 582 385 640 599 12 44 10 77 -6 157 -9 47
-95 169 -145 206 -22 17 -54 42 -72 56 -18 14 -72 49 -122 78 -49 29 -97 56
-105 61 -30 17 -278 140 -283 140 -3 0 -43 18 -89 39 -46 22 -110 49 -143 61
-33 12 -88 33 -122 45 -34 12 -82 32 -106 44 -47 23 -63 26 -71 13z m254 -187
c33 -14 67 -25 76 -25 9 0 27 -9 41 -20 14 -11 32 -20 39 -20 7 0 43 -16 80
-35 37 -19 73 -35 81 -35 7 0 16 -7 19 -15 4 -8 12 -15 20 -15 11 0 86 -34
192 -88 17 -9 35 -25 38 -35 4 -11 12 -16 23 -12 12 3 41 -13 85 -47 38 -29
80 -61 95 -70 14 -10 28 -28 32 -40 4 -17 11 -22 27 -20 21 3 22 0 16 -36 -6
-37 -4 -41 17 -44 27 -3 38 -40 19 -64 -10 -11 -9 -19 5 -40 14 -22 15 -27 2
-37 -8 -7 -17 -24 -21 -39 -3 -16 -9 -40 -13 -55 -3 -15 -29 -51 -57 -79 -28
-29 -62 -67 -75 -85 -14 -17 -36 -37 -51 -43 -15 -6 -41 -28 -59 -49 -25 -28
-39 -36 -53 -31 -14 4 -21 0 -25 -14 -3 -11 -19 -26 -36 -33 -18 -7 -53 -27
-80 -46 -26 -18 -55 -33 -66 -33 -10 0 -24 -7 -31 -15 -7 -8 -27 -15 -46 -15
-21 0 -38 -7 -46 -19 -7 -10 -27 -21 -45 -25 -17 -4 -37 -14 -44 -22 -6 -8
-18 -14 -26 -14 -8 0 -26 -9 -40 -20 -14 -11 -36 -20 -50 -20 -13 0 -35 -7
-48 -16 -14 -9 -32 -13 -41 -10 -9 4 -23 1 -30 -5 -40 -33 -57 24 -74 240 -20
269 -7 1102 18 1149 17 30 56 29 132 -3z"/>
</g>
</svg>
