<?xml version="1.0" standalone="no"?>
<!DOCTYPE svg PUBLIC "-//W3C//DTD SVG 20010904//EN"
 "http://www.w3.org/TR/2001/REC-SVG-20010904/DTD/svg10.dtd">
<svg version="1.0" xmlns="http://www.w3.org/2000/svg"
 width="300.000000pt" height="200.000000pt" viewBox="0 0 300.000000 200.000000"
 preserveAspectRatio="xMidYMid meet">
<metadata>
Created by potrace 1.10, written by Peter Selinger 2001-2011
</metadata>
<g transform="translate(0.000000,200.000000) scale(0.100000,-0.100000)"
fill="#000000" stroke="none">
<path d="M1497 1762 c-8 -9 -20 -29 -26 -44 -7 -18 -22 -30 -48 -38 -97 -32
-255 -124 -328 -191 -51 -47 -65 -91 -45 -140 17 -41 131 -120 215 -150 36
-12 65 -27 65 -33 0 -5 -9 -42 -19 -80 -11 -39 -29 -116 -41 -171 -12 -55 -31
-131 -42 -168 l-19 -68 -29 21 c-67 48 -100 127 -100 242 0 91 -15 102 -38 27
-18 -59 -10 -147 19 -204 22 -44 91 -117 118 -126 10 -4 4 -31 -23 -107 -39
-109 -42 -135 -13 -140 22 -5 87 35 87 54 0 17 -21 18 -39 1 -16 -14 -15 -8
21 96 20 59 26 67 43 61 11 -4 72 -8 135 -9 l115 -2 6 -55 c10 -89 46 -192 79
-228 23 -25 34 -30 42 -22 9 9 4 35 -19 104 -31 93 -57 207 -49 216 3 2 35 15
71 27 140 49 250 134 276 213 33 101 -44 178 -275 272 -88 36 -91 38 -90 69 0
17 1 135 2 261 l2 230 28 12 c15 7 80 12 145 12 l119 1 24 -30 c17 -21 26 -27
34 -19 18 18 -7 59 -46 78 -44 20 -169 21 -244 1 -30 -8 -56 -15 -57 -15 -2 0
-3 8 -3 18 0 18 -18 42 -30 42 -4 0 -14 -8 -23 -18z m38 -32 c3 -11 14 -21 23
-21 15 -1 16 -2 1 -6 -13 -3 -18 -22 -24 -91 -4 -48 -6 -91 -5 -97 1 -5 1 -71
0 -145 -1 -100 -4 -127 -11 -105 -5 17 -9 88 -8 158 0 71 -2 131 -5 134 -3 4
-6 -80 -6 -187 l0 -192 -27 5 c-16 3 -40 10 -54 16 l-26 9 38 149 c21 81 44
176 50 211 6 34 15 62 20 62 5 0 9 12 8 28 -1 27 -1 27 -15 -7 -8 -18 -38
-124 -66 -236 -58 -228 -59 -224 19 -245 41 -12 47 -12 58 3 16 22 25 21 25
-2 0 -11 10 -27 22 -35 22 -16 22 -16 1 -16 -19 0 -21 -7 -28 -105 -8 -114 2
-330 16 -356 26 -49 273 78 325 167 43 74 25 125 -68 185 -34 21 -57 39 -52
39 21 0 116 -73 134 -103 22 -36 25 -78 9 -110 -35 -68 -141 -142 -266 -187
-35 -13 -67 -28 -72 -34 -16 -19 17 -163 65 -291 7 -17 6 -18 -8 -7 -25 20
-57 105 -76 200 l-18 87 -59 6 c-42 4 -50 6 -25 8 79 5 74 -11 76 265 l2 246
-28 15 c-15 8 -47 16 -71 17 l-44 3 -18 -70 c-10 -38 -22 -95 -28 -125 -6 -30
-26 -113 -46 -184 -23 -86 -31 -132 -24 -139 5 -5 31 -16 58 -23 l48 -14 -65
6 -66 6 -29 -84 c-15 -45 -30 -89 -33 -95 -2 -7 4 -13 14 -14 16 0 16 -2 -4
-11 -12 -6 -25 -8 -30 -4 -4 4 8 49 26 100 39 113 40 129 5 151 -72 46 -115
125 -119 220 l-3 70 9 -60 c5 -33 17 -79 25 -102 18 -47 98 -126 123 -121 10
2 23 24 34 61 25 84 107 441 102 448 -2 4 -34 19 -71 35 -79 33 -175 94 -197
126 -47 66 22 151 199 248 74 41 69 33 -15 -21 -92 -59 -156 -116 -171 -150
-16 -40 0 -69 61 -114 48 -35 166 -95 187 -95 23 0 27 15 103 331 27 116 27
123 -7 115 -27 -5 -26 -4 3 9 17 8 41 30 52 50 24 40 38 44 47 15z m-120 -217
c-17 -71 -39 -163 -49 -205 -11 -48 -23 -78 -31 -78 -24 0 -150 69 -193 105
-54 47 -54 71 1 122 71 66 258 182 293 183 7 0 0 -47 -21 -127z m34 -373 l40
-11 -2 -242 -2 -242 -77 -3 c-97 -4 -143 8 -142 34 1 10 13 62 28 114 14 52
35 140 46 195 32 155 39 177 55 171 8 -3 32 -10 54 -16z m306 -125 c86 -48
115 -79 115 -125 0 -59 -60 -120 -173 -175 -51 -24 -104 -47 -118 -51 -24 -5
-27 -2 -32 33 -8 48 -9 398 -1 405 7 8 133 -44 209 -87z m-81 70 c31 -14 56
-27 56 -30 0 -5 -110 42 -119 50 -9 10 8 4 63 -20z"/>
</g>
</svg>
