<?xml version="1.0" standalone="no"?>
<!DOCTYPE svg PUBLIC "-//W3C//DTD SVG 20010904//EN"
 "http://www.w3.org/TR/2001/REC-SVG-20010904/DTD/svg10.dtd">
<svg version="1.0" xmlns="http://www.w3.org/2000/svg"
 width="226.000000pt" height="245.000000pt" viewBox="0 0 226.000000 245.000000"
 preserveAspectRatio="xMidYMid meet">
<metadata>
Created by potrace 1.10, written by Peter Selinger 2001-2011
</metadata>
<g transform="translate(0.000000,245.000000) scale(0.100000,-0.100000)"
fill="#000000" stroke="none">
<path d="M0 1225 l0 -1225 1130 0 1130 0 0 1225 0 1225 -1130 0 -1130 0 0
-1225z m1170 935 c13 -8 14 -60 10 -397 -7 -579 -6 -936 4 -958 5 -11 10 -41
12 -68 3 -62 39 -213 70 -295 27 -72 29 -82 14 -82 -20 0 -79 107 -99 180 -50
182 -56 254 -55 603 1 219 -1 247 -15 247 -9 0 -33 8 -53 18 -30 13 -36 20
-28 32 8 13 14 13 53 -1 l44 -15 6 185 c10 260 8 451 -3 424 -5 -12 -38 -143
-75 -290 -36 -147 -69 -281 -74 -298 -5 -16 -28 -113 -51 -215 -67 -297 -96
-395 -179 -619 -19 -51 -27 -81 -19 -79 72 27 79 12 13 -27 -79 -46 -84 -16
-24 153 l41 116 -28 20 c-91 63 -153 161 -170 267 -7 39 20 169 35 169 3 0 7
-40 8 -89 2 -108 13 -153 55 -215 27 -41 105 -112 114 -103 11 11 127 470 151
598 4 24 0 28 -48 43 -130 43 -266 133 -294 195 -17 39 -17 43 -1 85 32 84
240 226 434 296 55 20 66 29 84 64 34 68 41 73 68 56z m398 -47 c37 -27 53
-55 42 -73 -7 -11 -11 -9 -18 11 -14 37 -33 48 -97 60 -42 8 -81 7 -143 -1
-78 -10 -104 -9 -90 6 13 13 109 23 192 20 67 -3 94 -8 114 -23z m-191 -788
c185 -87 253 -149 253 -235 0 -87 -78 -176 -221 -250 -112 -58 -155 -72 -169
-55 -8 10 -4 16 22 26 176 74 281 147 318 225 20 40 21 51 11 84 -18 61 -124
135 -293 205 -66 27 -75 34 -61 48 9 10 33 1 140 -48z m-277 -570 c0 -17 -33
-25 -112 -25 -61 0 -66 2 -61 20 4 16 15 20 77 22 81 3 96 1 96 -17z"/>
<path d="M965 1977 c-126 -67 -206 -121 -278 -189 -83 -78 -78 -108 28 -183
57 -41 221 -122 230 -113 3 3 45 173 99 398 13 58 28 113 31 123 10 25 0 22
-110 -36z"/>
</g>
</svg>
