<?xml version="1.0" standalone="no"?>
<!DOCTYPE svg PUBLIC "-//W3C//DTD SVG 20010904//EN"
 "http://www.w3.org/TR/2001/REC-SVG-20010904/DTD/svg10.dtd">
<svg version="1.0" xmlns="http://www.w3.org/2000/svg"
 width="226.000000pt" height="245.000000pt" viewBox="0 0 226.000000 245.000000"
 preserveAspectRatio="xMidYMid meet">
<metadata>
Created by potrace 1.10, written by Peter Selinger 2001-2011
</metadata>
<g transform="translate(0.000000,245.000000) scale(0.050000,-0.050000)"
fill="#000000" stroke="none">
<path d="M2182 4449 c-49 -27 -73 -49 -54 -49 19 0 29 -9 21 -21 -7 -12 -23
-18 -36 -13 -12 4 -40 -15 -62 -42 -21 -28 -115 -85 -208 -128 -92 -43 -183
-94 -201 -113 -17 -19 -23 -21 -12 -5 18 28 -15 11 -190 -96 -137 -84 -261
-190 -251 -216 8 -22 2 -22 -32 -4 -28 14 -37 15 -29 1 8 -12 -6 -41 -29 -64
-254 -254 -94 -615 381 -862 163 -85 165 -98 73 -454 -91 -353 -110 -367 -153
-109 -39 235 -143 357 -255 299 -261 -136 -242 -661 36 -962 71 -77 153 -274
100 -242 -19 12 -88 -228 -89 -312 -1 -78 57 -166 94 -143 11 7 14 2 7 -10
-40 -64 146 -107 243 -56 149 78 203 181 173 328 -17 81 32 147 98 130 24 -5
93 -20 153 -33 148 -31 150 -33 198 -188 59 -195 176 -385 267 -436 42 -23 71
-46 67 -51 -5 -4 39 -8 98 -8 88 0 103 5 84 27 -15 18 -25 20 -30 5 -4 -12
-17 -22 -28 -22 -13 0 -11 12 4 30 14 17 30 26 36 21 25 -25 64 34 41 62 -18
22 -16 25 10 15 27 -10 33 1 33 60 0 55 -8 72 -35 72 -27 1 -29 5 -8 18 21 13
19 41 -15 149 -22 73 -46 177 -54 230 l-13 98 73 24 c39 13 79 36 87 50 8 14
70 54 138 88 144 72 345 233 385 309 15 29 36 48 45 42 9 -5 11 4 5 21 -7 17
-22 25 -33 18 -12 -8 -15 -4 -7 9 7 12 25 18 39 12 31 -11 93 162 93 259 0 82
-60 236 -85 220 -13 -8 -17 6 -11 37 8 41 3 49 -28 41 -25 -7 -33 -1 -26 18
12 31 -151 165 -290 239 -87 46 -101 51 -156 56 -15 1 -22 10 -16 19 6 9 -45
40 -114 68 l-124 50 -5 533 c-5 464 -2 532 25 532 16 0 30 9 30 20 0 26 301
26 369 0 28 -10 51 -33 51 -51 0 -17 8 -27 17 -21 9 6 46 0 82 -14 56 -21 68
-19 90 11 14 20 38 33 53 29 16 -4 22 -4 14 1 -7 4 4 25 25 46 41 41 53 148
19 169 -12 7 -16 20 -10 30 17 27 -169 178 -248 200 -107 30 -444 24 -487 -8
-45 -34 -126 -18 -215 41 -85 57 -106 57 -218 -4z m181 -164 c15 -38 18 -237
9 -635 -39 -1817 -36 -2067 22 -2056 16 4 18 -13 6 -54 -26 -92 55 -461 157
-715 54 -134 13 -146 -77 -21 -165 226 -250 791 -236 1547 l9 422 -101 28
c-66 19 -104 41 -108 64 -9 44 50 46 147 6 l69 -29 0 84 c0 46 6 332 13 634 7
303 6 544 -1 538 -7 -7 -76 -268 -152 -580 -77 -313 -148 -595 -158 -628 -11
-33 -52 -208 -93 -390 -132 -594 -190 -797 -365 -1275 -33 -91 -56 -165 -51
-165 5 0 36 14 68 31 100 51 74 -19 -30 -79 -164 -96 -173 -50 -59 279 l91
259 -47 29 c-260 163 -405 502 -328 767 49 169 67 153 69 -61 3 -288 77 -463
251 -589 l81 -58 26 76 c48 136 295 1165 282 1174 -4 2 -74 30 -157 61 -343
130 -590 351 -553 494 48 185 472 489 889 638 110 39 132 56 168 127 75 150
121 172 159 77z m699 -25 c89 -25 178 -104 178 -159 0 -56 -56 -52 -64 4 -14
104 -245 150 -514 103 -164 -28 -208 -26 -171 11 55 52 434 79 571 41z m-327
-1601 c487 -229 611 -392 486 -637 -104 -203 -711 -565 -760 -452 -9 21 0 26
261 148 685 319 616 624 -221 972 -27 11 -52 31 -56 45 -16 49 79 24 290 -76z
m15 -294 c106 -55 230 -163 230 -201 0 -68 -306 -284 -402 -284 -10 0 -18 121
-18 270 l0 269 55 -6 c30 -4 91 -25 135 -48z m-730 -415 l0 -210 -50 0 c-62 0
-68 94 -18 263 18 59 36 118 40 132 19 67 28 6 28 -185z m185 -407 c28 -6 15
-59 -17 -71 -87 -33 -379 -13 -382 27 -3 41 270 71 399 44z"/>
<path d="M1930 3954 c-486 -256 -722 -479 -650 -613 44 -83 577 -396 609 -358
3 4 60 232 127 507 67 275 127 516 135 535 20 51 -1 45 -221 -71z m-90 -332
c0 -61 -69 -304 -92 -323 -31 -27 -194 57 -215 110 -11 30 73 107 207 188 76
47 100 53 100 25z"/>
</g>
</svg>
